# xmcd
#
# Track frame offsets:
#	150
#	19795
#	33400
#	54833
#	69896
#	82720
#	95442
#	112719
#	125464
#	142063
#	156902
#	172228
#	185366
#
# Disc length: 2595 seconds
#
# Revision: 1
# Processed by: cddbd v1.5.2PL0 Copyright (c) Steve Scherf et al.
# Submitted via: EZCDAudioConverter 4.0.5.1
#
DISCID=9e0a210d
DTITLE=Alabama - Songs Of Inspiration II
DYEAR=2007
DGENRE=Country
TTITLE0=I Am A Pilgrim
TTITLE1=Church In The Wildwood
TTITLE2=Will The Circle Be Unbroken
TTITLE3=If I Could Hear My Mother Pray Again
TTITLE4=Suppertime
TTITLE5=Down By The Riverside
TTITLE6=Precious Memories
TTITLE7=Lonesome Valley
TTITLE8=The Refrain Of John Dillon James
TTITLE9=Love Lifted Me
TTITLE10=When It Comes My Time
TTITLE11=One Life
TTITLE12=The Star Spangled Banner
EXTD=
EXTT0=
EXTT1=
EXTT2=
EXTT3=
EXTT4=
EXTT5=
EXTT6=
EXTT7=
EXTT8=
EXTT9=
EXTT10=
EXTT11=
EXTT12=
PLAYORDER=
